<svg xmlns="http://www.w3.org/2000/svg" version="1.1" xmlns:xlink="http://www.w3.org/1999/xlink" xmlns:svgjs="http://svgjs.com/svgjs" width="1000" height="1000"><rect width="1000" height="1000" rx="350" ry="350" fill="#ffffff"></rect><g transform="matrix(7.407407407407407,0,0,7.407407407407407,100.00095019517119,256.12933900621204)"><svg xmlns="http://www.w3.org/2000/svg" version="1.1" xmlns:xlink="http://www.w3.org/1999/xlink" xmlns:svgjs="http://svgjs.com/svgjs" width="108" height="66"><svg width="108" height="66" viewBox="0 0 108 66" fill="none" xmlns="http://www.w3.org/2000/svg">
<path d="M106.747 63.0074C107.336 64.3301 106.368 65.8209 104.92 65.8209H53.6908C52.2429 65.8209 51.2748 64.3301 51.8637 63.0074L79.3883 1.18652C79.7096 0.464912 80.4255 0 81.2154 0H92.4197C93.8673 0 94.8354 1.49013 94.2471 2.81276L73.8156 48.751C73.2274 50.0736 74.1955 51.5637 75.643 51.5637H100.353C101.143 51.5637 101.859 52.0286 102.18 52.7502L106.747 63.0074Z" fill="#3894A3"></path>
<path d="M88.6829 46.3299C89.2718 47.6526 88.3037 49.1434 86.8558 49.1434H79.3755C77.9276 49.1434 76.9595 47.6526 77.5484 46.3299L81.2886 37.9293C81.9929 36.3473 84.2384 36.3473 84.9428 37.9293L88.6829 46.3299Z" fill="#3894A3"></path>
<path d="M58.6338 34.8874C60.0816 34.8874 61.0498 36.3782 60.4609 37.7009L55.8947 47.9569C55.5735 48.6785 54.8576 49.1434 54.0676 49.1434H24.3301C23.5402 49.1434 22.8243 49.6083 22.503 50.33L16.1348 64.6343C15.8136 65.3559 15.0976 65.8209 14.3077 65.8209H3.07974C1.63185 65.8209 0.663738 64.3301 1.25265 63.0074L28.7772 1.18652C29.0985 0.464912 29.8144 0 30.6043 0H42.0819C42.8718 0 43.5877 0.464966 43.909 1.18664L47.6786 9.65462C47.9091 10.1724 47.909 10.7637 47.6785 11.2814L42.0652 23.8895C41.3609 25.4714 39.1157 25.4716 38.4112 23.8898L38.17 23.3485C37.4655 21.7666 35.2202 21.7669 34.5159 23.3489L30.6318 32.074C30.043 33.3967 31.0111 34.8874 32.459 34.8874H58.6338Z" fill="#3894A3"></path>
<path d="M44.944 51.5637C46.3919 51.5637 47.36 53.0544 46.7712 54.3771L42.2049 64.6343C41.8836 65.3559 41.1677 65.8209 40.3778 65.8209H29.1497C27.7018 65.8209 26.7337 64.3302 27.3225 63.0075L31.8888 52.7503C32.2101 52.0287 32.926 51.5637 33.7159 51.5637H44.944Z" fill="#3894A3"></path>
<path d="M72.2889 9.50794C72.5194 10.0257 72.5194 10.617 72.2889 11.1348L66.414 24.3301C65.8102 25.6863 63.8854 25.6862 63.2817 24.33C62.678 22.9739 60.7532 22.9738 60.1494 24.3298L57.0544 31.2806C56.7331 32.0022 56.0172 32.4671 55.2273 32.4671H43.9992C42.5513 32.4671 41.5832 30.9763 42.1721 29.6536L54.8462 1.18654C55.1675 0.464921 55.8834 0 56.6733 0H66.7571C67.547 0 68.2629 0.464933 68.5842 1.18657L72.2889 9.50794Z" fill="#3894A3"></path>
</svg></svg></g></svg>